<svg width="478" height="104" viewBox="0 0 478 104" fill="none" xmlns="http://www.w3.org/2000/svg">
<path d="M14.1052 103.222C6.30516 103.122 0.105159 97.1224 0.00515852 89.3224C-0.0948415 81.3224 5.80516 75.0224 13.8052 74.8224C16.3052 74.7224 18.7052 74.5224 21.2052 74.1224C30.0052 72.4224 35.4052 66.8224 36.8052 58.0224C37.1052 56.0224 37.3052 54.1224 37.3052 52.1224C37.4052 43.7224 43.6052 37.5224 52.0052 37.3224C54.5052 37.3224 56.9052 37.2224 59.3052 36.6224C68.2052 34.4224 73.6052 28.2224 74.4052 19.0224C74.6052 17.0224 74.7052 14.9224 74.8052 12.9224C75.2052 5.72239 81.7052 -0.0776079 89.3052 0.0223921C96.6052 0.122392 102.805 6.22239 103.305 13.2224C103.805 21.9224 97.3052 28.8224 88.4052 28.7224C85.9052 28.7224 83.5052 28.9224 81.1052 29.5224C72.7052 31.6224 67.6052 37.5224 66.4052 46.1224C66.1052 48.6224 66.2052 51.0224 65.9052 53.5224C64.9052 60.9224 59.0052 65.9224 51.5052 66.0224C48.8052 66.0224 46.1052 66.3224 43.5052 67.0224C34.6052 69.3224 29.2052 76.1224 28.8052 85.4224C28.7052 87.2224 28.7052 89.1224 28.4052 90.9224C27.4052 98.3224 21.6052 103.322 14.1052 103.222Z" fill="#00A092"/>
<path d="M14.3049 66.0224C6.60494 66.0224 0.204934 60.0224 0.00493401 52.5224C-0.195066 44.2224 5.70494 37.8224 14.1049 37.4224C16.6049 37.3224 19.2049 37.3224 21.7049 36.7224C31.3049 34.5224 36.9049 27.6224 37.3049 17.3224C37.4049 15.5224 37.3049 13.6224 37.7049 11.8224C38.9049 4.62239 45.2049 -0.377612 52.6049 0.0223875C59.6049 0.422388 65.5049 6.32239 65.9049 13.3224C66.4049 20.7224 61.4049 27.0224 54.3049 28.4224C51.6049 28.9224 48.8049 28.6224 46.1049 29.1224C35.3049 30.9224 29.0049 38.0224 28.7049 48.9224C28.7049 50.6224 28.6049 52.3224 28.4049 54.0224C27.3049 61.0224 21.4049 66.0224 14.3049 66.0224Z" fill="#8FC3A0"/>
<path d="M0.00488281 14.2224C0.00488281 6.22239 6.40488 0.0223846 14.5049 0.0223846C22.3049 0.0223846 28.7049 6.52238 28.7049 14.3224C28.7049 22.1224 22.0049 28.8224 14.3049 28.7224C6.20488 28.6224 0.00488281 22.2224 0.00488281 14.2224Z" fill="#CAD4B2"/>
<path d="M89.0052 74.8224C97.1052 74.8224 103.305 81.0224 103.305 89.2224C103.305 97.2224 97.0052 103.422 89.1052 103.522C81.1052 103.522 74.8052 97.1224 74.8052 89.1224C74.8052 80.9224 81.0052 74.8224 89.0052 74.8224Z" fill="url(#paint0_linear_8_2)"/>
<path d="M89.0052 74.8224C97.1052 74.8224 103.305 81.0224 103.305 89.2224C103.305 97.2224 97.0052 103.422 89.1052 103.522C81.1052 103.522 74.8052 97.1224 74.8052 89.1224C74.8052 80.9224 81.0052 74.8224 89.0052 74.8224Z" fill="#CAD4B2"/>
<path d="M51.5047 103.322C32.8047 103.222 32.9047 75.3224 51.3047 74.8224C62.9047 75.1224 73.7047 68.7224 74.4047 56.3224C72.1047 34.3224 101.205 29.6224 103.305 51.7224C102.605 65.1224 92.5047 65.8224 81.8047 66.8224C55.6047 72.2224 76.7047 101.522 51.5047 103.322Z" fill="#8FC3A0"/>
<path d="M172.805 49.7224C175.205 52.6224 176.405 56.4224 176.405 61.1224C176.405 74.9224 166.105 81.7224 145.505 81.7224C138.405 81.7224 132.605 81.5224 128.005 81.3224H127.905L128.705 59.6224L127.905 9.22239L150.305 9.12239C157.305 9.12239 162.705 10.6224 166.505 13.6224C170.405 16.6224 172.305 21.0224 172.305 26.8224C172.305 30.8224 171.405 34.3224 169.505 37.2224C167.605 40.1224 165.005 42.3224 161.505 43.8224C166.705 44.8224 170.405 46.8224 172.805 49.7224ZM160.305 69.6224C163.305 67.5224 164.805 64.4224 164.805 60.4224C164.805 54.0224 160.605 50.2224 152.305 49.1224L139.205 49.2224L139.105 58.6224L139.405 72.4224C142.305 72.6224 145.005 72.7224 147.505 72.7224C153.005 72.7224 157.305 71.7224 160.305 69.6224ZM157.505 20.5224C155.505 18.9224 152.105 18.1224 147.305 18.1224H139.705L139.405 40.2224L151.005 40.5224C154.305 39.7224 156.705 38.3224 158.305 36.3224C159.905 34.3224 160.705 31.6224 160.705 28.2224C160.505 24.6224 159.505 22.0224 157.505 20.5224Z" fill="#E4E6E7"/>
<path d="M219.305 32.2224C222.305 34.7224 223.805 38.1224 223.805 42.5224C223.805 43.8224 223.605 48.3224 223.105 56.0224C222.705 63.5224 222.405 67.9224 222.405 69.1224C222.405 70.5224 222.605 71.5224 223.105 72.1224C223.605 72.7224 224.405 72.9224 225.605 72.9224C226.305 72.9224 227.505 72.8224 229.005 72.5224L230.005 73.3224L228.905 79.6224C226.705 80.9224 224.405 81.8224 221.805 82.1224C219.505 81.9224 217.605 81.0224 216.205 79.6224C214.805 78.1224 213.905 76.2224 213.605 73.8224H212.905C209.105 77.8224 205.205 80.6224 201.205 82.2224C196.005 82.1224 192.005 80.8224 189.005 78.2224C186.005 75.6224 184.605 72.0224 184.605 67.5224C184.605 60.8224 188.205 56.7224 195.505 55.0224L213.205 51.1224L213.305 45.0224C213.305 42.2224 212.605 40.1224 211.205 38.7224C209.805 37.3224 207.805 36.6224 205.205 36.6224C202.705 36.6224 200.105 37.2224 197.605 38.3224C195.105 39.5224 192.305 41.3224 189.205 43.7224L188.305 43.1224L186.805 35.1224C193.405 30.6224 200.105 28.4224 207.005 28.4224C212.205 28.5224 216.305 29.8224 219.305 32.2224ZM198.705 61.2224C197.405 61.5224 196.405 62.0224 195.805 62.7224C195.205 63.4224 194.905 64.5224 194.905 66.0224C194.905 68.2224 195.505 70.0224 196.805 71.3224C198.005 72.6224 199.705 73.2224 201.805 73.2224C205.305 73.2224 209.105 70.9224 213.005 66.4224L213.305 57.8224L198.705 61.2224Z" fill="#E4E6E7"/>
<path d="M245.105 36.5224L256.305 69.4224H257.105L268.305 37.5224L270.205 29.5224H280.105L262.305 78.6224C260.505 83.7224 258.505 87.7224 256.405 90.8224C254.205 93.8224 251.605 96.2224 248.405 98.0224C245.205 99.8224 241.105 101.322 236.005 102.622H235.005C233.205 100.822 231.605 98.6224 230.305 95.9224L230.605 94.7224C235.905 93.7224 240.105 92.3224 243.205 90.4224C246.305 88.5224 249.105 85.5224 251.605 81.2224L232.805 29.7224L243.605 29.1224L245.105 36.5224Z" fill="#E4E6E7"/>
<path d="M318.005 32.2224C321.005 34.7224 322.505 38.1224 322.505 42.5224C322.505 43.8224 322.305 48.3224 321.805 56.0224C321.405 63.5224 321.105 67.9224 321.105 69.1224C321.105 70.5224 321.305 71.5224 321.805 72.1224C322.305 72.7224 323.105 72.9224 324.305 72.9224C325.005 72.9224 326.205 72.8224 327.705 72.5224L328.705 73.3224L327.605 79.6224C325.405 80.9224 323.105 81.8224 320.505 82.1224C318.205 81.9224 316.305 81.0224 314.905 79.6224C313.505 78.1224 312.605 76.2224 312.305 73.8224H311.505C307.705 77.8224 303.805 80.6224 299.805 82.2224C294.605 82.1224 290.605 80.8224 287.605 78.2224C284.605 75.6224 283.205 72.0224 283.205 67.5224C283.205 60.8224 286.805 56.7224 294.105 55.0224L311.805 51.1224L311.905 45.0224C311.905 42.2224 311.205 40.1224 309.805 38.7224C308.405 37.3224 306.405 36.6224 303.805 36.6224C301.305 36.6224 298.705 37.2224 296.205 38.3224C293.705 39.5224 290.905 41.3224 287.805 43.7224L286.905 43.1224L285.405 35.1224C292.005 30.6224 298.705 28.4224 305.605 28.4224C311.005 28.5224 315.005 29.8224 318.005 32.2224ZM297.405 61.2224C296.105 61.5224 295.105 62.0224 294.505 62.7224C293.905 63.4224 293.605 64.5224 293.605 66.0224C293.605 68.2224 294.205 70.0224 295.505 71.3224C296.705 72.6224 298.405 73.2224 300.505 73.2224C304.005 73.2224 307.805 70.9224 311.705 66.4224L312.005 57.8224L297.405 61.2224Z" fill="#E4E6E7"/>
<path d="M371.405 47.3224C371.505 44.5224 370.805 42.2224 369.405 40.6224C368.005 39.0224 366.005 38.2224 363.405 38.2224C359.105 38.2224 354.605 40.4224 349.905 44.9224V58.6224L350.605 81.3224H339.205L339.905 59.6224L339.305 30.3224L350.205 29.3224L350.105 36.8224H350.905C355.305 32.9224 359.905 30.3224 364.705 28.8224C370.505 28.8224 374.805 30.1224 377.805 32.7224C380.805 35.3224 382.205 39.1224 382.105 43.9224L381.805 58.5224L382.405 81.2224H370.805L371.405 47.3224Z" fill="#E4E6E7"/>
<path d="M428.305 32.2224C431.305 34.7224 432.805 38.1224 432.805 42.5224C432.805 43.8224 432.605 48.3224 432.105 56.0224C431.705 63.5224 431.405 67.9224 431.405 69.1224C431.405 70.5224 431.605 71.5224 432.105 72.1224C432.605 72.7224 433.405 72.9224 434.605 72.9224C435.305 72.9224 436.505 72.8224 438.005 72.5224L439.005 73.3224L437.905 79.6224C435.705 80.9224 433.405 81.8224 430.805 82.1224C428.505 81.9224 426.605 81.0224 425.205 79.6224C423.805 78.1224 422.905 76.2224 422.605 73.8224H421.905C418.105 77.8224 414.205 80.6224 410.205 82.2224C405.005 82.1224 401.005 80.8224 398.005 78.2224C395.005 75.6224 393.605 72.0224 393.605 67.5224C393.605 60.8224 397.205 56.7224 404.505 55.0224L422.205 51.1224L422.305 45.0224C422.305 42.2224 421.605 40.1224 420.205 38.7224C418.805 37.3224 416.805 36.6224 414.205 36.6224C411.705 36.6224 409.105 37.2224 406.605 38.3224C404.105 39.5224 401.305 41.3224 398.205 43.7224L397.305 43.1224L395.805 35.1224C402.405 30.6224 409.105 28.4224 416.005 28.4224C421.205 28.5224 425.305 29.8224 428.305 32.2224ZM407.705 61.2224C406.405 61.5224 405.405 62.0224 404.805 62.7224C404.205 63.4224 403.905 64.5224 403.905 66.0224C403.905 68.2224 404.505 70.0224 405.805 71.3224C407.005 72.6224 408.705 73.2224 410.805 73.2224C414.305 73.2224 418.105 70.9224 422.005 66.4224L422.305 57.8224L407.705 61.2224Z" fill="#E4E6E7"/>
<path d="M476.305 70.6224L477.405 71.4224L476.305 78.6224C472.205 80.5224 468.405 81.7224 464.905 82.0224C460.305 81.3224 456.905 79.7224 454.805 77.3224C452.705 74.9224 451.705 71.5224 451.705 67.0224L452.105 58.9224L452.005 37.0224H444.905L444.505 36.3224L445.105 29.7224H451.905V21.5224L462.005 17.7224L463.005 18.6224L462.805 29.7224H477.205L477.605 30.5224L477.005 37.0224H462.505L461.905 65.2224C461.805 68.0224 462.305 69.9224 463.305 71.0224C464.305 72.1224 466.005 72.6224 468.405 72.6224C470.905 72.6224 473.605 71.9224 476.305 70.6224Z" fill="#E4E6E7"/>
<defs>
<linearGradient id="paint0_linear_8_2" x1="81.8812" y1="101.523" x2="96.2362" y2="76.6598" gradientUnits="userSpaceOnUse">
<stop stop-color="#00A092"/>
<stop offset="0.0818391" stop-color="#1AA494"/>
<stop offset="0.1791" stop-color="#31A896"/>
<stop offset="0.2702" stop-color="#3FAA98"/>
<stop offset="0.3481" stop-color="#44AB98"/>
<stop offset="0.4807" stop-color="#7CB49C"/>
<stop offset="0.5812" stop-color="#A9BCA0"/>
<stop offset="0.6605" stop-color="#A6BBA0"/>
<stop offset="0.7236" stop-color="#9CBA9F"/>
<stop offset="0.7811" stop-color="#8BB79E"/>
<stop offset="0.8353" stop-color="#73B39C"/>
<stop offset="0.8872" stop-color="#55AE99"/>
<stop offset="0.9374" stop-color="#2FA896"/>
<stop offset="0.9853" stop-color="#04A192"/>
<stop offset="0.989" stop-color="#00A092"/>
</linearGradient>
</defs>
</svg>
