<svg width="130" height="130" viewBox="0 0 130 130" fill="none" xmlns="http://www.w3.org/2000/svg">
<g clip-path="url(#clip0_21_2)">
<path d="M56.8145 28L65.9141 37.0996H101.9C107.457 37.0998 112 41.643 112 47.2002V92.7002C112 98.2573 107.457 102.8 101.9 102.8H29.0996C23.5426 102.8 19.0001 98.2573 19 92.7002L19.0459 38.0996L19.0586 37.583C19.3271 32.2697 23.7097 28.0002 29.0996 28H56.8145Z" fill="url(#paint0_linear_21_2)" stroke="#DEDEDE" stroke-width="2"/>
<path d="M47.4557 94.1018C43.7464 94.0542 40.7979 91.2009 40.7504 87.4915C40.7028 83.6871 43.5086 80.6911 47.313 80.596C48.5019 80.5484 49.6433 80.4533 50.8321 80.2631C55.017 79.4546 57.585 76.7915 58.2508 72.6066C58.3935 71.6555 58.4886 70.7519 58.4886 69.8008C58.5362 65.8061 61.4846 62.8577 65.4793 62.7626C66.6682 62.7626 67.8095 62.715 68.9508 62.4297C73.1833 61.3835 75.7512 58.435 76.1316 54.0599C76.2268 53.1088 76.2743 52.1101 76.3219 51.159C76.5121 47.735 79.6032 44.9767 83.2174 45.0243C86.689 45.0718 89.6374 47.9727 89.8752 51.3016C90.113 55.439 87.0219 58.7203 82.7894 58.6728C81.6005 58.6728 80.4593 58.7679 79.318 59.0532C75.3233 60.0519 72.898 62.8577 72.3273 66.9475C72.1846 68.1364 72.2322 69.2777 72.0895 70.4666C71.614 73.9857 68.8082 76.3635 65.2415 76.4111C63.9575 76.4111 62.6735 76.5537 61.4371 76.8866C57.2046 77.9804 54.6366 81.2142 54.4464 85.6369C54.3988 86.4929 54.3988 87.3964 54.2562 88.2524C53.7806 91.7715 51.0224 94.1493 47.4557 94.1018Z" fill="#EEEEEE"/>
<path d="M47.5506 76.4134C43.8888 76.4134 40.8453 73.5601 40.7501 69.9934C40.655 66.0463 43.4609 63.0027 47.4556 62.8125C48.6445 62.7649 49.8808 62.7649 51.0697 62.4796C55.6351 61.4334 58.2982 58.152 58.4884 53.2538C58.536 52.3978 58.4884 51.4942 58.6786 50.6382C59.2493 47.2142 62.2453 44.8364 65.7644 45.0266C69.0933 45.2169 71.8992 48.0226 72.0894 51.3516C72.3272 54.8707 69.9493 57.8667 66.5729 58.5325C65.2889 58.7702 63.9574 58.6276 62.6734 58.8654C57.5374 59.7214 54.5414 63.0978 54.3987 68.2814C54.3987 69.0898 54.3512 69.8983 54.256 70.7067C53.7329 74.0356 50.9271 76.4134 47.5506 76.4134Z" fill="#EEEEEE"/>
<path d="M40.7502 51.7772C40.7502 47.9727 43.7938 45.0243 47.6458 45.0243C51.3552 45.0243 54.3987 48.1154 54.3987 51.8248C54.3987 55.5341 51.2125 58.7203 47.5507 58.6728C43.6987 58.6252 40.7502 55.5817 40.7502 51.7772Z" fill="#EEEEEE"/>
<path d="M83.0744 80.5983C86.9264 80.5983 89.8749 83.5467 89.8749 87.4463C89.8749 91.2507 86.8789 94.1992 83.122 94.2468C79.3175 94.2468 76.3215 91.2032 76.3215 87.3987C76.3215 83.4992 79.27 80.5983 83.0744 80.5983Z" fill="#EEEEEE"/>
<path d="M83.0744 80.5983C86.9264 80.5983 89.8749 83.5467 89.8749 87.4463C89.8749 91.2507 86.8789 94.1992 83.122 94.2468C79.3175 94.2468 76.3215 91.2032 76.3215 87.3987C76.3215 83.4992 79.27 80.5983 83.0744 80.5983Z" fill="#EEEEEE"/>
<path d="M65.2416 94.1518C56.3487 94.1042 56.3963 80.8362 65.1465 80.5984C70.663 80.7411 75.799 77.6975 76.1319 71.8006C75.0381 61.3383 88.8768 59.1032 89.8754 69.613C89.5425 75.9855 84.7394 76.3184 79.651 76.7939C67.1914 79.362 77.2256 93.2958 65.2416 94.1518Z" fill="#EEEEEE"/>
</g>
<defs>
<linearGradient id="paint0_linear_21_2" x1="4.5" y1="12.5" x2="126" y2="116" gradientUnits="userSpaceOnUse">
<stop stop-color="#CAD4B2"/>
<stop offset="0.25" stop-color="#9EC7A5"/>
<stop offset="0.5" stop-color="#00A092"/>
<stop offset="0.75" stop-color="#8FC3A0"/>
<stop offset="1" stop-color="#ADCCA9"/>
</linearGradient>
<clipPath id="clip0_21_2">
<rect width="130" height="130" fill="white"/>
</clipPath>
</defs>
</svg>
