<svg width="130" height="130" viewBox="0 0 130 130" fill="none" xmlns="http://www.w3.org/2000/svg">
<g clip-path="url(#clip0_21_2)">
<path d="M53.6392 14L66.0655 26.5302H115.208C122.796 26.5305 129 32.7865 129 40.4388V103.093C129 110.745 122.796 117 115.208 117H15.7919C8.20334 117 2.00014 110.745 2 103.093L2.06268 27.9072L2.08002 27.1958C2.44668 19.8794 8.43153 14.0003 15.7919 14H53.6392Z" fill="url(#paint0_linear_21_2)" stroke="#DEDEDE" stroke-width="2"/>
<path d="M41.1435 104.999C36.0859 104.934 32.0656 101.039 32.0008 95.975C31.9359 90.7814 35.7616 86.6914 40.9489 86.5616C42.57 86.4966 44.1263 86.3668 45.7472 86.1071C51.4533 85.0034 54.9547 81.3679 55.8626 75.6548C56.0571 74.3564 56.1868 73.1229 56.1868 71.8245C56.2517 66.3711 60.2718 62.3461 65.7186 62.2163C67.3397 62.2163 68.8958 62.1513 70.452 61.7618C76.223 60.3336 79.7244 56.3085 80.2431 50.3358C80.3729 49.0374 80.4377 47.674 80.5026 46.3756C80.7619 41.7013 84.9766 37.9358 89.9046 38.0008C94.6381 38.0657 98.6582 42.0258 98.9825 46.5703C99.3067 52.2185 95.092 56.6979 89.321 56.6331C87.7 56.6331 86.1438 56.7629 84.5876 57.1524C79.1409 58.5158 75.834 62.3461 75.0558 67.9293C74.8613 69.5523 74.9262 71.1104 74.7316 72.7334C74.0833 77.5375 70.2576 80.7836 65.3944 80.8486C63.6436 80.8486 61.8929 81.0432 60.2071 81.4977C54.4361 82.9909 50.9346 87.4055 50.6753 93.4432C50.6104 94.6117 50.6104 95.8452 50.4159 97.0137C49.7675 101.818 46.0067 105.064 41.1435 104.999Z" fill="#EEEEEE"/>
<path d="M41.3285 81C36.3072 81 32.1338 77.0923 32.0032 72.2076C31.8728 66.8019 35.7203 62.6335 41.1981 62.373C42.8284 62.3079 44.5238 62.3079 46.1541 61.9171C52.4145 60.4843 56.0663 55.9903 56.3271 49.282C56.3924 48.1097 56.3271 46.8722 56.5879 45.6999C57.3705 41.0106 61.4788 37.7541 66.3044 38.0146C70.8692 38.2752 74.7167 42.1177 74.9776 46.6769C75.3036 51.4964 72.043 55.5996 67.4131 56.5114C65.6524 56.837 63.8264 56.6417 62.0657 56.9673C55.0229 58.1397 50.9146 62.7638 50.7189 69.8629C50.7189 70.9701 50.6538 72.0773 50.5232 73.1845C49.8059 77.7435 45.9586 81 41.3285 81Z" fill="#EEEEEE"/>
<path d="M32 46.9056C32 41.8883 36.014 38 41.0941 38C45.9862 38 50 42.0765 50 46.9683C50 51.8601 45.798 56.0619 40.9687 55.9993C35.8886 55.9365 32 51.9228 32 46.9056Z" fill="#EEEEEE"/>
<path d="M89.9684 86C95.0842 86 99 90.1044 99 95.5331C99 100.829 95.0211 104.934 90.0316 105C84.9789 105 81 100.763 81 95.4668C81 90.0383 84.9158 86 89.9684 86Z" fill="#EEEEEE"/>
<path d="M89.9684 86C95.0842 86 99 90.1044 99 95.5331C99 100.829 95.0211 104.934 90.0316 105C84.9789 105 81 100.763 81 95.4668C81 90.0383 84.9158 86 89.9684 86Z" fill="#EEEEEE"/>
<path d="M65.1554 105C52.9373 104.935 53.0027 86.7631 65.0247 86.4374C72.6039 86.6329 79.6603 82.4644 80.1177 74.3881C78.6149 60.0591 97.628 56.9979 99 71.392C98.5426 80.1197 91.9436 80.5756 84.9526 81.2268C67.8342 84.7441 81.6203 103.828 65.1554 105Z" fill="#EEEEEE"/>
</g>
<defs>
<linearGradient id="paint0_linear_21_2" x1="-17.8011" y1="-7.34358" x2="149.278" y2="133.803" gradientUnits="userSpaceOnUse">
<stop stop-color="#CAD4B2"/>
<stop offset="0.25" stop-color="#9EC7A5"/>
<stop offset="0.5" stop-color="#00A092"/>
<stop offset="0.75" stop-color="#8FC3A0"/>
<stop offset="1" stop-color="#ADCCA9"/>
</linearGradient>
<clipPath id="clip0_21_2">
<rect width="130" height="130" fill="white"/>
</clipPath>
</defs>
</svg>
