<svg width="104" height="104" viewBox="0 0 104 104" fill="none" xmlns="http://www.w3.org/2000/svg">
<path d="M14.1049 103.222C6.30491 103.122 0.104914 97.1224 0.00491438 89.3224C-0.0950856 81.3224 5.80492 75.0224 13.8049 74.8224C16.3049 74.7224 18.7049 74.5224 21.2049 74.1224C30.0049 72.4224 35.4049 66.8224 36.8049 58.0224C37.1049 56.0224 37.3049 54.1224 37.3049 52.1224C37.4049 43.7224 43.6049 37.5224 52.0049 37.3224C54.5049 37.3224 56.9049 37.2224 59.3049 36.6224C68.2049 34.4224 73.6049 28.2224 74.4049 19.0224C74.6049 17.0224 74.7049 14.9224 74.8049 12.9224C75.2049 5.72239 81.7049 -0.0776079 89.3049 0.0223921C96.6049 0.122392 102.805 6.22239 103.305 13.2224C103.805 21.9224 97.3049 28.8224 88.4049 28.7224C85.9049 28.7224 83.5049 28.9224 81.1049 29.5224C72.7049 31.6224 67.6049 37.5224 66.4049 46.1224C66.1049 48.6224 66.2049 51.0224 65.9049 53.5224C64.9049 60.9224 59.0049 65.9224 51.5049 66.0224C48.8049 66.0224 46.1049 66.3224 43.5049 67.0224C34.6049 69.3224 29.2049 76.1224 28.8049 85.4224C28.7049 87.2224 28.7049 89.1224 28.4049 90.9224C27.4049 98.3224 21.6049 103.322 14.1049 103.222Z" fill="#00A092"/>
<path d="M14.3049 66.0224C6.60494 66.0224 0.204934 60.0224 0.00493401 52.5224C-0.195066 44.2224 5.70494 37.8224 14.1049 37.4224C16.6049 37.3224 19.2049 37.3224 21.7049 36.7224C31.3049 34.5224 36.9049 27.6224 37.3049 17.3224C37.4049 15.5224 37.3049 13.6224 37.7049 11.8224C38.9049 4.62239 45.2049 -0.377612 52.6049 0.0223875C59.6049 0.422388 65.5049 6.32239 65.9049 13.3224C66.4049 20.7224 61.4049 27.0224 54.3049 28.4224C51.6049 28.9224 48.8049 28.6224 46.1049 29.1224C35.3049 30.9224 29.0049 38.0224 28.7049 48.9224C28.7049 50.6224 28.6049 52.3224 28.4049 54.0224C27.3049 61.0224 21.4049 66.0224 14.3049 66.0224Z" fill="#8FC3A0"/>
<path d="M0.00488281 14.2224C0.00488281 6.22239 6.40488 0.0223846 14.5049 0.0223846C22.3049 0.0223846 28.7049 6.52238 28.7049 14.3224C28.7049 22.1224 22.0049 28.8224 14.3049 28.7224C6.20488 28.6224 0.00488281 22.2224 0.00488281 14.2224Z" fill="#CAD4B2"/>
<path d="M89.0049 74.8224C97.1049 74.8224 103.305 81.0224 103.305 89.2224C103.305 97.2224 97.0049 103.422 89.1049 103.522C81.1049 103.522 74.8049 97.1224 74.8049 89.1224C74.8049 80.9224 81.0049 74.8224 89.0049 74.8224Z" fill="url(#paint0_linear_5_18)"/>
<path d="M89.0049 74.8224C97.1049 74.8224 103.305 81.0224 103.305 89.2224C103.305 97.2224 97.0049 103.422 89.1049 103.522C81.1049 103.522 74.8049 97.1224 74.8049 89.1224C74.8049 80.9224 81.0049 74.8224 89.0049 74.8224Z" fill="#CAD4B2"/>
<path d="M51.505 103.322C32.805 103.222 32.905 75.3224 51.305 74.8224C62.905 75.1224 73.705 68.7224 74.405 56.3224C72.105 34.3224 101.205 29.6224 103.305 51.7224C102.605 65.1224 92.505 65.8224 81.805 66.8224C55.605 72.2224 76.705 101.522 51.505 103.322Z" fill="#8FC3A0"/>
<defs>
<linearGradient id="paint0_linear_5_18" x1="81.8809" y1="101.523" x2="96.2359" y2="76.6598" gradientUnits="userSpaceOnUse">
<stop stop-color="#00A092"/>
<stop offset="0.0818391" stop-color="#1AA494"/>
<stop offset="0.1791" stop-color="#31A896"/>
<stop offset="0.2702" stop-color="#3FAA98"/>
<stop offset="0.3481" stop-color="#44AB98"/>
<stop offset="0.4807" stop-color="#7CB49C"/>
<stop offset="0.5812" stop-color="#A9BCA0"/>
<stop offset="0.6605" stop-color="#A6BBA0"/>
<stop offset="0.7236" stop-color="#9CBA9F"/>
<stop offset="0.7811" stop-color="#8BB79E"/>
<stop offset="0.8353" stop-color="#73B39C"/>
<stop offset="0.8872" stop-color="#55AE99"/>
<stop offset="0.9374" stop-color="#2FA896"/>
<stop offset="0.9853" stop-color="#04A192"/>
<stop offset="0.989" stop-color="#00A092"/>
</linearGradient>
</defs>
</svg>
