<svg width="482" height="95" viewBox="0 0 482 95" fill="none" xmlns="http://www.w3.org/2000/svg">
<path fill-rule="evenodd" clip-rule="evenodd" d="M394.766 5.54901C420.895 5.54901 447.023 5.54901 473.152 5.54901C473.152 9.53967 473.152 13.5302 473.152 17.5209C447.023 17.5209 420.895 17.5209 394.766 17.5209C394.766 13.5302 394.766 9.53967 394.766 5.54901Z" fill="#829C8E"/>
<path fill-rule="evenodd" clip-rule="evenodd" d="M96.7802 12.4525C99.6727 12.3902 102.44 12.9436 105.082 14.1128C105.169 16.151 105.198 18.19 105.169 20.2299C104.267 20.2299 103.363 20.2299 102.46 20.2299C102.508 19.0132 102.376 17.8189 102.067 16.647C101.056 15.6098 99.8178 15.0418 98.3532 14.943C96.7986 14.7317 95.3716 15.0522 94.0713 15.9043C92.743 17.1525 92.3498 18.6526 92.8916 20.4046C93.166 21.0565 93.5592 21.6245 94.0713 22.1087C94.7809 22.7011 95.5376 23.2255 96.3433 23.6816C97.932 24.5196 99.5338 25.3351 101.15 26.1284C105.853 28.5264 107.207 32.182 105.213 37.0954C104.257 38.8192 102.844 39.9989 100.975 40.6345C96.8449 41.5425 92.7963 41.2513 88.8281 39.7606C88.7407 39.717 88.6533 39.6733 88.566 39.6296C88.4786 37.3291 88.4497 35.028 88.4786 32.7261C89.4687 32.7261 90.4596 32.7261 91.4497 32.7261C91.4008 33.8427 91.4742 34.9495 91.6682 36.0467C91.9862 36.86 92.5245 37.4863 93.2848 37.9255C95.3358 38.8821 97.433 38.9986 99.5766 38.2751C102.251 36.9575 103.111 34.8748 102.154 32.027C101.528 30.8182 100.61 29.9006 99.4018 29.2743C97.8289 28.4588 96.2559 27.6431 94.683 26.8275C93.0209 25.9891 91.579 24.8677 90.3574 23.4632C88.5992 20.6652 88.6866 17.9272 90.6195 15.2489C92.3017 13.4986 94.3553 12.5665 96.7802 12.4525Z" fill="#505156"/>
<path fill-rule="evenodd" clip-rule="evenodd" d="M146.503 12.7147C147.944 12.7717 148.759 13.5145 148.95 14.943C148.583 16.845 147.477 17.4858 145.629 16.8655C144.558 16.0922 144.281 15.0873 144.799 13.8507C145.221 13.237 145.789 12.8582 146.503 12.7147Z" fill="#505156"/>
<path fill-rule="evenodd" clip-rule="evenodd" d="M255.124 12.7147C256.869 12.7851 257.67 13.6881 257.527 15.4236C257.092 16.7557 256.175 17.2945 254.774 17.0403C253.56 16.6093 253.051 15.75 253.245 14.4624C253.498 13.4706 254.125 12.888 255.124 12.7147Z" fill="#505156"/>
<path fill-rule="evenodd" clip-rule="evenodd" d="M190.458 13.1516C193.458 13.1516 196.459 13.1516 199.459 13.1516C199.459 13.8507 199.459 14.5498 199.459 15.2489C198.783 15.2217 198.114 15.2654 197.449 15.3799C197.025 15.5709 196.806 15.9059 196.793 16.3849C196.765 22.2688 196.735 28.1529 196.706 34.0369C196.564 36.1837 195.734 38.0043 194.215 39.4985C193.104 40.3453 191.852 40.8696 190.458 41.0714C187.856 41.4532 185.38 41.06 183.03 39.8917C182.943 38.0867 182.914 36.2807 182.943 34.4738C183.817 34.4738 184.69 34.4738 185.564 34.4738C185.187 37.8395 186.672 39.2523 190.021 38.712C191.598 38.3869 192.574 37.4403 192.948 35.872C193.073 35.3541 193.161 34.8298 193.211 34.299C193.269 28.2111 193.269 22.1233 193.211 16.0353C193.111 15.7027 192.892 15.4842 192.555 15.3799C191.862 15.2608 191.163 15.2171 190.458 15.2489C190.458 14.5498 190.458 13.8507 190.458 13.1516Z" fill="#505156"/>
<path fill-rule="evenodd" clip-rule="evenodd" d="M242.715 16.4723C243.355 16.4723 243.997 16.4723 244.637 16.4723C244.637 18.1909 244.637 19.9094 244.637 21.628C246.326 21.628 248.016 21.628 249.706 21.628C249.706 22.4145 249.706 23.201 249.706 23.9875C248.016 23.9875 246.326 23.9875 244.637 23.9875C244.622 27.8908 244.637 31.7941 244.681 35.6972C244.79 38.1772 245.999 38.9491 248.307 38.0129C248.867 37.7688 249.405 37.4921 249.924 37.1827C249.996 38.0197 249.981 38.8499 249.88 39.6733C248.563 40.4766 247.135 40.8989 245.598 40.9404C243.474 41.042 242.12 40.0807 241.535 38.0566C241.406 33.3697 241.363 28.68 241.404 23.9875C240.589 23.9875 239.772 23.9875 238.957 23.9875C238.957 23.4049 238.957 22.8223 238.957 22.2397C240.824 21.6109 241.974 20.3292 242.409 18.3948C242.556 17.7603 242.658 17.1194 242.715 16.4723Z" fill="#505156"/>
<path fill-rule="evenodd" clip-rule="evenodd" d="M229.257 21.1037C231.555 21.0117 233.77 21.3903 235.899 22.2397C235.899 23.9292 235.899 25.6187 235.899 27.3081C235.083 27.3081 234.267 27.3081 233.452 27.3081C233.467 26.6084 233.452 25.9093 233.408 25.2109C233.073 23.8868 232.213 23.2022 230.83 23.1573C229.673 22.9762 228.595 23.1801 227.597 23.769C226.558 24.7432 226.368 25.8646 227.029 27.1334C227.337 27.4715 227.673 27.7773 228.034 28.0509C230.044 29.0122 232.054 29.9734 234.063 30.9347C236.556 32.3812 237.386 34.493 236.554 37.2701C235.835 39.0665 234.539 40.2171 232.665 40.7219C230.419 41.2224 228.176 41.1932 225.937 40.6345C225.052 40.4135 224.178 40.1659 223.315 39.8917C223.315 38.0566 223.315 36.2215 223.315 34.3864C224.218 34.3864 225.121 34.3864 226.024 34.3864C226.009 35.2025 226.024 36.0182 226.068 36.8332C226.321 37.9316 227.006 38.587 228.121 38.7994C229.36 39.0184 230.584 38.9602 231.791 38.6246C233.295 37.9022 233.863 36.7225 233.495 35.0855C233.036 34.1779 232.351 33.4934 231.442 33.0319C229.492 32.1154 227.57 31.1542 225.674 30.1482C223.649 28.6459 223.081 26.7088 223.97 24.337C224.578 23.0888 225.524 22.2004 226.81 21.6717C227.619 21.3968 228.434 21.2074 229.257 21.1037Z" fill="#505156"/>
<path fill-rule="evenodd" clip-rule="evenodd" d="M270.416 21.1911C272.98 20.9816 275.398 21.4767 277.669 22.6767C277.756 24.5691 277.785 26.4625 277.756 28.3568C276.854 28.3568 275.95 28.3568 275.047 28.3568C275.079 27.3622 275.035 26.3718 274.916 25.3856C274.657 24.4039 274.031 23.8068 273.038 23.5942C269.487 23.0318 267.2 24.4737 266.178 27.9198C265.637 30.0251 265.666 32.1224 266.265 34.2116C267.345 37.2359 269.486 38.5321 272.688 38.1003C274.572 37.6754 276.246 36.8453 277.713 35.6098C277.784 36.6505 277.77 37.6846 277.669 38.712C274.571 41.0781 271.163 41.6607 267.445 40.4597C265.127 39.3645 263.627 37.5731 262.944 35.0855C262.338 32.6756 262.309 30.2578 262.857 27.8324C264.008 24.0447 266.527 21.8309 270.416 21.1911Z" fill="#505156"/>
<path fill-rule="evenodd" clip-rule="evenodd" d="M339.975 21.1911C340.792 21.1766 341.607 21.1911 342.422 21.2348C344.644 21.4921 346.115 22.6718 346.835 24.7739C347.018 25.4323 347.134 26.1022 347.185 26.7838C347.214 30.5414 347.243 34.299 347.272 38.0566C347.316 38.3334 347.476 38.4935 347.753 38.5372C348.305 38.5809 348.859 38.5954 349.413 38.5809C349.413 39.2217 349.413 39.8626 349.413 40.5034C346.82 40.5034 344.228 40.5034 341.636 40.5034C341.636 39.8626 341.636 39.2217 341.636 38.5809C342.19 38.5954 342.744 38.5809 343.296 38.5372C343.52 38.4774 343.68 38.3463 343.777 38.144C343.919 34.6223 343.948 31.0977 343.864 27.5703C343.829 25.1935 342.635 23.941 340.281 23.8127C337.668 23.9514 336.095 25.2913 335.562 27.8324C335.492 28.2969 335.433 28.7629 335.388 29.2306C335.329 32.1144 335.329 34.9981 335.388 37.8818C335.412 38.1982 335.573 38.4166 335.868 38.5372C336.45 38.5809 337.033 38.5954 337.616 38.5809C337.616 39.2217 337.616 39.8626 337.616 40.5034C335.053 40.5034 332.489 40.5034 329.926 40.5034C329.926 39.8626 329.926 39.2217 329.926 38.5809C330.422 38.5954 330.917 38.5808 331.412 38.5372C331.764 38.4999 331.982 38.3106 332.067 37.9692C332.125 33.4542 332.125 28.9394 332.067 24.4244C331.957 24.1685 331.767 24.0083 331.499 23.9438C330.83 23.9001 330.159 23.8856 329.489 23.9001C329.489 23.2884 329.489 22.6767 329.489 22.065C331.325 21.896 333.16 21.7212 334.994 21.5406C335.147 22.3893 335.278 23.2341 335.388 24.0748C336.481 22.4142 338.01 21.453 339.975 21.1911Z" fill="#505156"/>
<path fill-rule="evenodd" clip-rule="evenodd" d="M139.162 21.3659C140.137 21.262 141.069 21.4076 141.958 21.8028C142.046 23.1415 142.075 24.4814 142.046 25.8226C141.288 25.8226 140.531 25.8226 139.774 25.8226C139.824 24.0849 139.066 23.6043 137.502 24.3807C136.428 25.1721 135.685 26.2062 135.273 27.4829C134.862 28.7017 134.629 29.9543 134.574 31.2405C134.516 33.396 134.516 35.5515 134.574 37.7071C134.601 38.0972 134.791 38.374 135.142 38.5372C135.753 38.5809 136.365 38.5954 136.977 38.5809C136.977 39.2217 136.977 39.8626 136.977 40.5034C134.385 40.5034 131.793 40.5034 129.2 40.5034C129.2 39.8626 129.2 39.2217 129.2 38.5809C129.667 38.5954 130.133 38.5808 130.598 38.5372C131.17 38.4022 131.446 38.0382 131.428 37.4449C131.487 33.2795 131.487 29.1141 131.428 24.9487C131.435 24.5689 131.276 24.2922 130.948 24.1185C130.257 23.9961 129.558 23.9524 128.851 23.9875C128.851 23.3758 128.851 22.7641 128.851 22.1523C130.624 21.9392 132.4 21.7644 134.181 21.628C134.352 22.7294 134.483 23.8363 134.574 24.9487C135.533 23.0076 137.062 21.8134 139.162 21.3659Z" fill="#505156"/>
<path fill-rule="evenodd" clip-rule="evenodd" d="M147.901 21.3659C148.134 21.3659 148.367 21.3659 148.6 21.3659C148.585 26.7839 148.6 32.2018 148.644 37.6197C148.61 38.0345 148.771 38.3403 149.124 38.5372C149.706 38.5809 150.289 38.5954 150.872 38.5809C150.872 39.2217 150.872 39.8626 150.872 40.5034C148.279 40.5034 145.687 40.5034 143.095 40.5034C143.095 39.8626 143.095 39.2217 143.095 38.5809C143.678 38.5954 144.26 38.5809 144.842 38.5372C145.22 38.3514 145.409 38.0456 145.41 37.6197C145.469 33.3378 145.469 29.0558 145.41 24.7739C145.408 24.4343 145.277 24.1577 145.017 23.9438C144.267 23.8205 143.51 23.7769 142.745 23.8127C142.745 23.1719 142.745 22.531 142.745 21.8902C144.477 21.7354 146.196 21.5607 147.901 21.3659Z" fill="#505156"/>
<path fill-rule="evenodd" clip-rule="evenodd" d="M206.1 21.3659C206.391 21.3659 206.683 21.3659 206.974 21.3659C206.959 25.8517 206.974 30.3376 207.018 34.8233C207.146 37.0054 208.296 38.0831 210.469 38.0566C212.806 38.0925 214.364 37.0147 215.145 34.8233C215.329 34.1947 215.445 33.5538 215.494 32.9008C215.553 30.1045 215.553 27.3081 215.494 24.5118C215.466 24.2083 215.335 23.9607 215.101 23.769C214.349 23.6487 213.593 23.6051 212.829 23.6379C212.829 22.9971 212.829 22.3562 212.829 21.7154C214.781 21.6113 216.733 21.4949 218.684 21.3659C218.669 26.6382 218.684 31.9106 218.727 37.1827C218.72 37.5625 218.88 37.8393 219.208 38.0129C219.906 38.0566 220.605 38.0711 221.305 38.0566C221.305 38.6683 221.305 39.28 221.305 39.8917C219.54 40.0733 217.778 40.2772 216.018 40.5034C215.854 40.373 215.767 40.1983 215.756 39.9791C215.607 39.1996 215.519 38.4131 215.494 37.6197C214.623 39.3447 213.24 40.4079 211.343 40.8093C209.39 41.207 207.555 40.9158 205.838 39.9354C204.715 38.9867 204.031 37.7779 203.784 36.3089C203.698 32.2597 203.61 28.2107 203.522 24.1622C203.412 23.9064 203.222 23.7462 202.954 23.6816C202.285 23.6379 201.615 23.6234 200.944 23.6379C200.944 22.9971 200.944 22.3562 200.944 21.7154C202.68 21.6521 204.399 21.5357 206.1 21.3659Z" fill="#505156"/>
<path fill-rule="evenodd" clip-rule="evenodd" d="M256.609 21.3659C256.842 21.3659 257.075 21.3659 257.308 21.3659C257.293 26.9296 257.308 32.4931 257.352 38.0566C257.424 38.3042 257.585 38.4644 257.833 38.5372C258.385 38.5809 258.939 38.5954 259.493 38.5809C259.493 39.2217 259.493 39.8626 259.493 40.5034C256.93 40.5034 254.366 40.5034 251.803 40.5034C251.803 39.8626 251.803 39.2217 251.803 38.5809C252.386 38.5954 252.969 38.5809 253.551 38.5372C253.852 38.3862 254.013 38.1386 254.031 37.7944C254.09 33.3669 254.09 28.9394 254.031 24.5118C253.994 24.1599 253.805 23.9414 253.463 23.8564C252.794 23.8127 252.124 23.7982 251.453 23.8127C251.453 23.1719 251.453 22.531 251.453 21.8902C253.184 21.7249 254.903 21.5502 256.609 21.3659Z" fill="#505156"/>
<path fill-rule="evenodd" clip-rule="evenodd" d="M107.878 21.628C110.616 21.628 113.354 21.628 116.092 21.628C116.092 22.2397 116.092 22.8514 116.092 23.4631C115.466 23.4352 114.854 23.508 114.257 23.6816C114.005 23.9358 113.931 24.2417 114.039 24.5992C115.502 28.4775 116.972 32.3516 118.452 36.2215C119.963 32.3843 121.375 28.5101 122.69 24.5992C122.798 24.1314 122.638 23.7964 122.209 23.5942C121.716 23.5152 121.222 23.4715 120.724 23.4631C120.724 22.8514 120.724 22.2397 120.724 21.628C123.112 21.628 125.501 21.628 127.889 21.628C127.889 22.2397 127.889 22.8514 127.889 23.4631C126.739 23.3165 125.968 23.7826 125.574 24.8613C122.858 31.873 120.09 38.8639 117.272 45.834C115.556 49.0675 112.949 50.0725 109.451 48.8488C109.28 48.7674 109.105 48.6946 108.927 48.6303C108.839 47.3499 108.81 46.0683 108.839 44.7853C109.597 44.7853 110.354 44.7853 111.111 44.7853C111.085 45.3164 111.129 45.8407 111.242 46.3583C111.615 46.9735 112.153 47.192 112.859 47.0137C113.477 46.8289 113.957 46.4647 114.301 45.9214C115.259 44.1823 116.031 42.3618 116.617 40.4597C114.592 35.3185 112.568 30.1773 110.543 25.0361C110.078 23.8785 109.219 23.3542 107.965 23.4631C107.878 22.8542 107.849 22.2425 107.878 21.628Z" fill="#505156"/>
<path fill-rule="evenodd" clip-rule="evenodd" d="M394.766 21.9776C420.895 21.9776 447.023 21.9776 473.152 21.9776C473.152 25.9682 473.152 29.9588 473.152 33.9495C447.023 33.9495 420.895 33.9495 394.766 33.9495C394.766 29.9588 394.766 25.9682 394.766 21.9776Z" fill="#AEBBA7"/>
<path fill-rule="evenodd" clip-rule="evenodd" d="M289.291 21.0166C294.209 20.968 296.962 23.3855 297.549 28.2695C297.626 29.1128 297.67 29.9576 297.681 30.8037H284.66C284.674 32.283 284.95 33.7107 285.491 35.0859C286.397 37.0399 287.926 38.1032 290.078 38.2754C291.841 38.3299 293.472 37.8922 294.972 36.9638C295.737 36.4756 296.465 35.9369 297.157 35.3476C297.259 36.3366 297.272 37.3268 297.2 38.3183C293.948 41.101 290.293 41.7857 286.233 40.372C284.344 39.4734 282.989 38.0605 282.169 36.1338C280.887 32.6338 280.974 29.1677 282.432 25.7353C283.862 22.9156 286.149 21.3427 289.291 21.0166ZM294.054 26.8711C293.367 24.2922 291.693 23.0977 289.03 23.2881C287.969 23.5058 287.081 24.0306 286.365 24.8613C285.567 25.9569 285.086 27.1802 284.922 28.5312H294.273C294.274 27.9687 294.201 27.4153 294.054 26.8711Z" fill="#505156"/>
<path fill-rule="evenodd" clip-rule="evenodd" d="M368.725 12.4524C368.71 20.6376 368.725 28.823 368.769 37.0081C368.8 38.0168 369.325 38.4249 370.342 38.2317C370.709 38.2224 371.073 38.1927 371.434 38.1438C371.487 38.7947 371.429 39.4211 371.259 40.0227C369.451 40.1734 367.646 40.3334 365.841 40.5032C365.705 39.6052 365.603 38.702 365.536 37.7942C364.63 39.3975 363.276 40.4022 361.472 40.8089C356.741 41.4922 353.697 39.5557 352.34 34.9983C351.64 32.1015 351.786 29.2463 352.778 26.4339C354.518 22.2797 357.62 20.5465 362.084 21.2346C363.494 21.6251 364.643 22.397 365.536 23.5501C365.618 20.8097 365.588 18.0717 365.449 15.3362C365.275 15.0089 364.999 14.8487 364.619 14.8557C364.008 14.812 363.396 14.7973 362.784 14.8118V13.0637C364.664 12.8934 366.528 12.6897 368.375 12.4524H368.725ZM359.987 23.638C358.543 23.814 357.421 24.5135 356.623 25.7356C355.576 27.7649 355.167 29.9201 355.399 32.2014C355.435 33.9409 355.988 35.4851 357.059 36.8333C358.882 38.4627 360.877 38.7106 363.045 37.5764C364.4 36.515 365.23 35.1308 365.536 33.4251C365.917 31.2687 365.799 29.1424 365.186 27.0462C364.257 24.7078 362.524 23.5717 359.987 23.638Z" fill="#505156"/>
<path fill-rule="evenodd" clip-rule="evenodd" d="M160.921 21.0159C162.632 20.9173 164.263 21.2236 165.815 21.9338C167.538 22.9583 168.339 24.4877 168.218 26.5217C168.222 30.2235 168.28 33.9226 168.393 37.6194C168.591 38.3705 169.072 38.6184 169.835 38.3625C170.195 38.2263 170.544 38.0662 170.883 37.8821C171 38.581 171 39.2798 170.883 39.9788C169.67 40.7118 168.359 41.0181 166.951 40.8967C166.351 40.7633 165.899 40.4284 165.596 39.8918C165.326 39.3088 165.151 38.6971 165.072 38.0569C163.389 40.3278 161.131 41.2745 158.299 40.8967C155.565 40.5888 153.977 39.0887 153.538 36.3967C153.2 33.761 154.176 31.7939 156.464 30.4973C157.809 29.8354 159.208 29.3117 160.66 28.925C162.136 28.5195 163.622 28.1549 165.116 27.8323C165.086 27.039 164.999 26.2525 164.854 25.4729C164.609 24.5883 164.085 23.9332 163.281 23.5071C161.682 22.9373 160.137 23.0539 158.649 23.8567C158.176 24.2644 157.87 24.7744 157.732 25.386C157.632 25.9643 157.589 26.5466 157.601 27.1331H155.067C155.038 25.763 155.067 24.3941 155.154 23.0266C156.915 21.8669 158.837 21.1961 160.921 21.0159ZM164.854 30.0168C162.905 30.5337 160.983 31.1602 159.086 31.8958C157.978 32.3629 157.235 33.1641 156.858 34.2991C156.535 35.8052 156.986 37.0145 158.212 37.926C159.282 38.4575 160.388 38.5444 161.533 38.1877C163.562 37.6155 164.713 36.2896 164.985 34.2112C165.097 32.8155 165.14 31.4172 165.116 30.0168H164.854Z" fill="#505156"/>
<path fill-rule="evenodd" clip-rule="evenodd" d="M318.391 21.016C319.768 20.9585 321.108 21.1482 322.411 21.5844C324.572 22.4233 325.635 24.011 325.6 26.3471C325.604 30.078 325.662 33.8067 325.775 37.5326C325.808 38.0973 326.1 38.4176 326.649 38.4936C327.229 38.4003 327.767 38.1967 328.265 37.8822C328.382 38.5812 328.382 39.28 328.265 39.9789C327.052 40.7119 325.741 41.0182 324.334 40.8969C323.671 40.7293 323.189 40.336 322.891 39.7172C322.692 39.2076 322.547 38.6829 322.455 38.1439C320.348 40.7069 317.682 41.5368 314.459 40.6342C312.03 39.8146 310.836 38.1111 310.876 35.5229C310.862 33.468 311.706 31.8803 313.41 30.7602C314.98 29.8967 316.641 29.2555 318.391 28.8373C319.757 28.4855 321.126 28.1505 322.498 27.8324C322.593 26.5453 322.316 25.3509 321.668 24.2494C320.863 23.4519 319.888 23.0733 318.741 23.1137C316.043 23.1035 314.789 24.4434 314.983 27.1332H312.449C312.42 25.763 312.449 24.3935 312.536 23.0258C314.334 21.8828 316.286 21.2129 318.391 21.016ZM322.236 30.017C320.287 30.5339 318.365 31.1603 316.469 31.8959C315.322 32.3721 314.579 33.2022 314.24 34.3861C313.966 35.7252 314.33 36.8466 315.333 37.7504C316.456 38.4363 317.65 38.5825 318.916 38.1879C320.925 37.6467 322.075 36.3503 322.367 34.2992C322.483 32.8746 322.527 31.447 322.498 30.017H322.236Z" fill="#505156"/>
<path fill-rule="evenodd" clip-rule="evenodd" d="M394.766 38.4936C420.895 38.4936 447.023 38.4936 473.152 38.4936C473.152 42.4842 473.152 46.4748 473.152 50.4654C447.023 50.4654 420.895 50.4654 394.766 50.4654C394.766 46.4748 394.766 42.4842 394.766 38.4936Z" fill="#D9DAC0"/>
<path fill-rule="evenodd" clip-rule="evenodd" d="M201.731 51.3393C201.934 51.3393 202.139 51.3393 202.342 51.3393C202.328 59.7284 202.342 68.1175 202.386 76.5065C202.379 76.8862 202.539 77.163 202.867 77.3366C203.443 77.4528 204.025 77.4965 204.614 77.4677C204.614 78.0794 204.614 78.6911 204.614 79.3028C201.993 79.3028 199.371 79.3028 196.75 79.3028C196.75 78.6911 196.75 78.0794 196.75 77.4677C197.367 77.4973 197.979 77.4536 198.585 77.3366C198.866 77.1384 199.027 76.8618 199.065 76.5065C199.124 69.1951 199.124 61.8839 199.065 54.5726C198.995 54.1534 198.748 53.9058 198.323 53.8298C197.653 53.7861 196.983 53.7716 196.313 53.7861C196.313 53.1744 196.313 52.5627 196.313 51.951C198.135 51.7806 199.941 51.5767 201.731 51.3393Z" fill="#505156"/>
<path fill-rule="evenodd" clip-rule="evenodd" d="M272.426 51.3393C275.207 51.1851 277.916 51.5493 280.553 52.4316C281.334 52.7348 282.091 53.0843 282.825 53.4802C282.911 55.5855 282.941 57.6974 282.912 59.8157C281.951 59.8157 280.99 59.8157 280.029 59.8157C280.01 58.642 279.909 57.4768 279.723 56.3203C279.337 55.5077 278.712 54.9689 277.844 54.7036C274.833 53.5104 271.891 53.656 269.018 55.1406C266.61 56.7666 265.139 59.024 264.605 61.913C263.954 64.9633 264.129 67.9636 265.129 70.9138C266.986 75.2873 270.292 77.3117 275.048 76.9871C278.009 76.6634 280.617 75.542 282.869 73.6227C282.927 74.7878 282.927 75.953 282.869 77.1182C280.027 79.1328 276.852 80.1232 273.344 80.0893C267.247 79.8986 263.228 76.9275 261.284 71.1759C260.101 66.9558 260.334 62.8195 261.983 58.7671C264.094 54.3704 267.575 51.8944 272.426 51.3393Z" fill="#505156"/>
<path fill-rule="evenodd" clip-rule="evenodd" d="M190.021 51.6014C191.59 51.4818 192.492 52.1954 192.73 53.7424C192.626 55.1277 191.883 55.8704 190.502 55.9708C189.434 55.9326 188.735 55.4082 188.404 54.3978C188.161 52.989 188.7 52.0568 190.021 51.6014Z" fill="#505156"/>
<path fill-rule="evenodd" clip-rule="evenodd" d="M209.858 51.6015C211.929 51.6053 212.759 52.6248 212.348 54.66C211.738 55.8307 210.792 56.2239 209.508 55.8397C208.141 55.0678 207.807 53.9755 208.503 52.5627C208.848 52.085 209.3 51.7645 209.858 51.6015Z" fill="#505156"/>
<path fill-rule="evenodd" clip-rule="evenodd" d="M394.766 54.9221C420.895 54.9221 447.023 54.9221 473.152 54.9221C473.152 58.9419 473.152 62.9616 473.152 66.9814C447.023 66.9814 420.895 66.9814 394.766 66.9814C394.766 62.9616 394.766 58.9419 394.766 54.9221Z" fill="#9BC1A1"/>
<path fill-rule="evenodd" clip-rule="evenodd" d="M136.978 55.359C137.618 55.359 138.259 55.359 138.9 55.359C138.9 57.0485 138.9 58.738 138.9 60.4274C140.56 60.4274 142.221 60.4274 143.881 60.4274C143.881 61.243 143.881 62.0587 143.881 62.8742C142.221 62.8742 140.56 62.8742 138.9 62.8742C138.885 66.8941 138.9 70.9138 138.944 74.9335C139.163 76.9743 140.255 77.6589 142.221 76.9871C142.875 76.7037 143.516 76.3978 144.143 76.0695C144.259 76.8851 144.259 77.7008 144.143 78.5163C142.303 79.6739 140.323 80.038 138.201 79.6087C137.019 79.2423 136.247 78.4704 135.885 77.2929C135.73 76.7208 135.642 76.1382 135.623 75.5452C135.579 71.3217 135.565 67.098 135.579 62.8742C134.793 62.8742 134.006 62.8742 133.22 62.8742C133.205 62.2909 133.22 61.7083 133.264 61.1265C134.976 60.4622 136.083 59.2388 136.584 57.4563C136.755 56.7626 136.886 56.0635 136.978 55.359Z" fill="#505156"/>
<path fill-rule="evenodd" clip-rule="evenodd" d="M219.994 55.359C220.635 55.359 221.276 55.359 221.917 55.359C221.917 57.0485 221.917 58.738 221.917 60.4274C223.606 60.4274 225.296 60.4274 226.985 60.4274C226.985 61.243 226.985 62.0587 226.985 62.8742C225.296 62.8742 223.606 62.8742 221.917 62.8742C221.902 66.7776 221.917 70.6809 221.961 74.584C222.072 76.9646 223.251 77.7365 225.5 76.8997C226.085 76.658 226.653 76.3812 227.204 76.0695C227.276 76.8867 227.262 77.7022 227.16 78.5163C225.845 79.3238 224.417 79.7607 222.878 79.8271C221.418 79.9046 220.238 79.3803 219.339 78.2542C219.095 77.8143 218.92 77.3482 218.815 76.856C218.685 72.1988 218.642 67.5381 218.684 62.8742C217.868 62.8742 217.052 62.8742 216.237 62.8742C216.208 62.2887 216.237 61.7062 216.324 61.1265C218.04 60.5035 219.132 59.3092 219.601 57.5437C219.789 56.825 219.92 56.0968 219.994 55.359Z" fill="#505156"/>
<path fill-rule="evenodd" clip-rule="evenodd" d="M330.276 55.359C330.946 55.359 331.615 55.359 332.286 55.359C332.286 57.0485 332.286 58.738 332.286 60.4274C333.946 60.4274 335.606 60.4274 337.267 60.4274C337.267 61.243 337.267 62.0587 337.267 62.8742C335.606 62.8742 333.946 62.8742 332.286 62.8742C332.271 66.9815 332.286 71.0886 332.329 75.1957C332.686 77.0902 333.778 77.6874 335.606 76.9871C336.257 76.7051 336.899 76.3992 337.529 76.0695C337.645 76.8851 337.645 77.7008 337.529 78.5163C336.189 79.2978 334.747 79.7348 333.203 79.8271C330.632 79.8196 329.234 78.5379 329.009 75.9821C328.965 71.6129 328.95 67.2436 328.965 62.8742C328.178 62.8742 327.392 62.8742 326.605 62.8742C326.591 62.2909 326.605 61.7083 326.649 61.1265C328.547 60.3937 329.683 59.0246 330.057 57.0194C330.187 56.4729 330.26 55.9194 330.276 55.359Z" fill="#505156"/>
<path fill-rule="evenodd" clip-rule="evenodd" d="M15.4233 51.6892C16.5518 51.6611 17.6741 51.6897 18.7886 51.7761C21.5897 59.7957 24.4143 67.8064 27.2642 75.8074C27.799 77.138 28.7751 77.6329 30.1919 77.2927V79.3025H21.1909V77.2927C21.8614 77.3072 22.5315 77.2924 23.2007 77.2488C23.6013 77.1394 23.8057 76.8776 23.813 76.4626C23.2418 74.516 22.6006 72.5934 21.8901 70.6951C18.4241 70.6514 14.958 70.6375 11.4917 70.6521C10.9797 72.2025 10.4402 73.746 9.87451 75.2829C9.70254 75.7367 9.6443 76.203 9.69971 76.6814C9.84547 77.0016 10.0934 77.1904 10.4429 77.2488C11.0829 77.2924 11.7234 77.3072 12.3647 77.2927V79.3025H3.97607V77.2927C5.27865 77.5782 6.22518 77.1414 6.81592 75.9822C9.69445 67.8854 12.5636 59.7876 15.4233 51.6892ZM16.647 55.8835C15.2661 59.9678 13.868 64.0457 12.4526 68.1169H20.9292C19.5347 64.0204 18.107 59.9427 16.647 55.8835Z" fill="#505156"/>
<path fill-rule="evenodd" clip-rule="evenodd" d="M40.853 59.9905C43.2382 59.914 45.4812 60.4384 47.5818 61.5635C47.6691 63.4268 47.6982 65.291 47.6691 67.1562C46.7662 67.1562 45.8631 67.1562 44.9602 67.1562C44.981 66.2209 44.9373 65.2887 44.8291 64.3598C44.5641 63.2212 43.8505 62.5658 42.6881 62.3936C39.1362 61.9829 36.9078 63.5122 36.0031 66.9814C35.5954 68.8459 35.5954 70.7101 36.0031 72.5741C36.9002 75.783 39.0121 77.254 42.3386 76.9871C44.3408 76.6049 46.1031 75.7456 47.6255 74.4092C47.6837 75.4287 47.6837 76.4482 47.6255 77.4677C44.6389 79.8373 41.3037 80.4927 37.6198 79.4339C35.7981 78.7483 34.4436 77.5395 33.5563 75.8074C32.0135 72.3607 31.897 68.8653 33.2068 65.3211C34.753 62.1082 37.3017 60.3314 40.853 59.9905Z" fill="#505156"/>
<path fill-rule="evenodd" clip-rule="evenodd" d="M59.8159 59.9905C62.2184 59.903 64.4758 60.4273 66.5883 61.5634C66.632 63.4275 66.6466 65.2917 66.632 67.1561C65.7291 67.1561 64.826 67.1561 63.923 67.1561C64.5313 63.4389 62.9874 61.8515 59.2916 62.3936C57.1356 62.9475 55.7519 64.3019 55.1407 66.4571C54.4435 68.9327 54.5309 71.3795 55.4029 73.7975C56.6457 76.247 58.641 77.3101 61.3888 76.9871C63.3542 76.5797 65.0874 75.7203 66.5883 74.4092C66.6466 75.4287 66.6466 76.4482 66.5883 77.4677C63.8178 79.7002 60.6864 80.4139 57.1943 79.6087C54.4235 78.6728 52.6321 76.794 51.8201 73.9723C51.2512 71.6847 51.1929 69.3834 51.6453 67.0688C52.7818 62.8681 55.5053 60.5087 59.8159 59.9905Z" fill="#505156"/>
<path fill-rule="evenodd" clip-rule="evenodd" d="M122.734 59.9905C124.4 59.8605 125.944 60.2245 127.365 61.0828C128.647 62.2343 129.331 63.6762 129.419 65.4084C129.448 69.1951 129.477 72.9819 129.506 76.7686C129.512 77.0112 129.614 77.2005 129.812 77.3366C130.447 77.4544 131.087 77.4981 131.735 77.4677C131.735 78.0794 131.735 78.6911 131.735 79.3028C129.142 79.3028 126.55 79.3028 123.957 79.3028C123.957 78.6911 123.957 78.0794 123.957 77.4677C124.546 77.4965 125.129 77.4528 125.705 77.3366C125.943 77.1848 126.075 76.9663 126.098 76.6812C126.157 73.1858 126.157 69.6903 126.098 66.1949C125.824 63.5295 124.353 62.3788 121.685 62.7432C119.436 63.1862 118.14 64.5407 117.796 66.8066C117.721 67.2997 117.663 67.7949 117.622 68.2922C117.563 71.0885 117.563 73.8849 117.622 76.6812C117.632 76.9793 117.763 77.1978 118.015 77.3366C118.619 77.4576 119.231 77.5013 119.85 77.4677C119.85 78.0794 119.85 78.6911 119.85 79.3028C117.287 79.3028 114.723 79.3028 112.16 79.3028C112.16 78.6911 112.16 78.0794 112.16 77.4677C112.789 77.5162 113.401 77.4434 113.995 77.2492C114.276 77.0106 114.407 76.7047 114.388 76.3317C114.447 72.1663 114.447 68.0009 114.388 63.8355C114.439 63.3893 114.279 63.0543 113.908 62.8305C113.18 62.7869 112.452 62.7723 111.723 62.7869C111.67 62.136 111.728 61.5097 111.898 60.9081C113.544 60.7508 115.19 60.5905 116.835 60.4274C116.966 60.4565 117.097 60.4857 117.228 60.5148C117.415 61.3207 117.546 62.1364 117.622 62.9616C118.843 61.145 120.547 60.1546 122.734 59.9905Z" fill="#505156"/>
<path fill-rule="evenodd" clip-rule="evenodd" d="M316.032 59.9905C317.778 59.8354 319.379 60.2286 320.838 61.1702C322.102 62.394 322.757 63.8941 322.804 65.6706C322.833 69.4282 322.863 73.1858 322.891 76.9434C323.012 77.239 323.231 77.3992 323.547 77.424C324.041 77.4676 324.536 77.4822 325.032 77.4677C325.032 78.0794 325.032 78.6911 325.032 79.3028C322.44 79.3028 319.848 79.3028 317.255 79.3028C317.255 78.6911 317.255 78.0794 317.255 77.4677C317.873 77.4973 318.485 77.4536 319.09 77.3366C319.226 77.2305 319.328 77.0995 319.396 76.9434C319.538 73.4799 319.567 70.0137 319.483 66.5445C319.488 65.5135 319.197 64.5813 318.61 63.7481C317.865 63.0045 316.962 62.655 315.901 62.6995C313.254 62.7829 311.681 64.1228 311.182 66.7192C311.104 67.1535 311.046 67.5905 311.007 68.03C310.948 70.9429 310.948 73.8558 311.007 76.7686C311.051 77.1619 311.269 77.3803 311.662 77.424C312.186 77.4676 312.71 77.4822 313.235 77.4677C313.235 78.0794 313.235 78.6911 313.235 79.3028C310.643 79.3028 308.051 79.3028 305.458 79.3028C305.458 78.6911 305.458 78.0794 305.458 77.4677C306.047 77.4965 306.63 77.4528 307.206 77.3366C307.462 77.2265 307.622 77.0372 307.686 76.7686C307.745 72.2828 307.745 67.797 307.686 63.3112C307.626 63.0877 307.495 62.9275 307.293 62.8305C306.565 62.7869 305.837 62.7723 305.108 62.7869C305.055 62.136 305.114 61.5097 305.283 60.9081C307.059 60.7242 308.835 60.5639 310.614 60.4274C310.795 61.2609 310.896 62.1057 310.92 62.9616C312.159 61.1699 313.863 60.1794 316.032 59.9905Z" fill="#505156"/>
<path fill-rule="evenodd" clip-rule="evenodd" d="M96.1683 60.1653C96.2409 64.6655 96.2845 69.1805 96.2994 73.7101C96.6044 76.2169 98.0165 77.2801 100.538 76.8997C102.642 76.5972 103.968 75.4175 104.514 73.3606C104.657 72.8457 104.744 72.3214 104.776 71.7876C104.834 68.9913 104.834 66.1949 104.776 63.3986C104.747 63.0049 104.558 62.7281 104.208 62.5684C103.513 62.457 102.814 62.4133 102.111 62.4373C102.111 61.8256 102.111 61.2139 102.111 60.6022C104.054 60.4853 105.991 60.3396 107.922 60.1653C107.951 65.4667 107.98 70.7681 108.009 76.0695C108.027 76.4653 108.216 76.7421 108.577 76.8997C109.247 76.9434 109.917 76.9579 110.587 76.9434C110.587 77.5551 110.587 78.1668 110.587 78.7785C108.782 78.9742 106.976 79.1344 105.169 79.2591C104.924 78.3614 104.793 77.4439 104.776 76.5065C103.495 78.7296 101.557 79.8364 98.9647 79.8271C95.4299 79.8312 93.4349 78.0834 92.9787 74.584C92.9761 70.7357 92.9184 66.8907 92.804 63.049C92.7314 62.8015 92.5706 62.6412 92.3233 62.5684C91.6286 62.457 90.9295 62.4133 90.2261 62.4373C90.2261 61.8256 90.2261 61.2139 90.2261 60.6022C92.222 60.4867 94.203 60.3411 96.1683 60.1653Z" fill="#505156"/>
<path fill-rule="evenodd" clip-rule="evenodd" d="M192.293 60.1653C192.365 65.5976 192.409 71.0448 192.424 76.5065C192.453 76.6812 192.482 76.856 192.511 77.0308C192.555 77.191 192.657 77.2929 192.817 77.3366C193.421 77.4576 194.033 77.5013 194.652 77.4677C194.652 78.0794 194.652 78.6911 194.652 79.3028C192.06 79.3028 189.468 79.3028 186.875 79.3028C186.875 78.6911 186.875 78.0794 186.875 77.4677C187.523 77.5019 188.164 77.4582 188.797 77.3366C189.046 77.0862 189.178 76.7803 189.191 76.4191C189.249 72.1372 189.249 67.8553 189.191 63.5733C189.162 63.1797 188.973 62.9029 188.623 62.7432C187.929 62.6277 187.23 62.584 186.525 62.6121C186.525 61.9713 186.525 61.3304 186.525 60.6896C188.464 60.562 190.387 60.3872 192.293 60.1653Z" fill="#505156"/>
<path fill-rule="evenodd" clip-rule="evenodd" d="M212.13 60.1653C212.202 65.6268 212.246 71.103 212.261 76.5939C212.245 76.9275 212.376 77.1751 212.654 77.3366C213.258 77.4576 213.869 77.5013 214.489 77.4677C214.489 78.0794 214.489 78.6911 214.489 79.3028C211.896 79.3028 209.304 79.3028 206.712 79.3028C206.712 78.6911 206.712 78.0794 206.712 77.4677C207.36 77.5019 208.001 77.4582 208.634 77.3366C208.808 77.2214 208.909 77.0612 208.94 76.856C209.083 72.4604 209.112 68.0619 209.027 63.6607C209.025 63.2314 208.835 62.9255 208.459 62.7432C207.765 62.6277 207.066 62.584 206.362 62.6121C206.362 61.9713 206.362 61.3304 206.362 60.6896C208.301 60.562 210.224 60.3872 212.13 60.1653Z" fill="#505156"/>
<path fill-rule="evenodd" clip-rule="evenodd" d="M350.112 60.1653C350.873 60.1604 351.586 60.3352 352.253 60.6896C352.297 62.0292 352.312 63.3691 352.297 64.7093C351.539 64.7093 350.783 64.7093 350.025 64.7093C350.114 62.9323 349.356 62.4516 347.753 63.2675C346.346 64.405 345.487 65.876 345.175 67.6805C345.063 68.2593 344.976 68.8418 344.913 69.4282C344.854 71.875 344.854 74.3218 344.913 76.7686C345.015 77.1036 345.234 77.322 345.568 77.424C346.15 77.4677 346.733 77.4822 347.316 77.4677C347.316 78.0794 347.316 78.6911 347.316 79.3028C344.694 79.3028 342.073 79.3028 339.451 79.3028C339.451 78.6911 339.451 78.0794 339.451 77.4677C340.011 77.4954 340.564 77.4517 341.112 77.3366C341.432 77.1909 341.621 76.9433 341.68 76.5938C341.738 72.2536 341.738 67.9135 341.68 63.5733C341.642 63.2214 341.453 63.003 341.112 62.9179C340.442 62.8742 339.772 62.8597 339.102 62.8742C339.075 62.2403 339.103 61.614 339.189 60.9954C340.942 60.7821 342.69 60.622 344.432 60.5148C344.656 61.6092 344.787 62.716 344.825 63.8355C345.917 61.6238 347.679 60.4004 350.112 60.1653Z" fill="#505156"/>
<path fill-rule="evenodd" clip-rule="evenodd" d="M228.034 60.4274C230.772 60.4274 233.51 60.4274 236.248 60.4274C236.248 61.0682 236.248 61.7091 236.248 62.3499C235.686 62.3176 235.133 62.3613 234.588 62.481C234.313 62.5916 234.168 62.7955 234.151 63.0927C235.599 67.116 237.099 71.1213 238.651 75.1083C240.101 71.3116 241.499 67.4957 242.846 63.6607C243.075 62.9906 242.856 62.5683 242.19 62.3936C241.784 62.35 241.376 62.3354 240.967 62.3499C240.967 61.7091 240.967 61.0682 240.967 60.4274C243.355 60.4274 245.744 60.4274 248.133 60.4274C248.133 61.0682 248.133 61.7091 248.133 62.3499C247.125 62.1744 246.382 62.524 245.904 63.3986C243.324 69.9456 240.761 76.4996 238.214 83.0604C237.737 84.2489 237.126 85.3558 236.379 86.3811C234.991 87.8535 233.287 88.4215 231.267 88.0851C230.486 87.9899 229.743 87.7714 229.039 87.4297C228.995 86.1484 228.98 84.8667 228.995 83.5847C229.782 83.5847 230.568 83.5847 231.355 83.5847C231.34 84.0807 231.355 84.5759 231.398 85.0703C231.803 85.8533 232.429 86.1008 233.277 85.8131C233.87 85.5411 234.321 85.1188 234.632 84.546C235.55 82.8962 236.264 81.1631 236.773 79.3465C234.776 74.0263 232.693 68.7394 230.524 63.4859C229.962 62.5568 229.132 62.1781 228.034 62.3499C228.034 61.7091 228.034 61.0682 228.034 60.4274Z" fill="#505156"/>
<path fill-rule="evenodd" clip-rule="evenodd" d="M294.272 59.9032C299.317 59.6346 302.186 61.994 302.88 66.9814C302.979 67.8817 303.023 68.7848 303.012 69.6904H290.078C290.024 71.4172 290.389 73.0483 291.171 74.5839C292.69 76.7714 294.774 77.5727 297.419 76.9872C299.377 76.4831 301.081 75.5363 302.53 74.1474C302.589 75.1668 302.589 76.1865 302.53 77.206C299.307 79.9417 295.68 80.6265 291.651 79.2597C289.688 78.3786 288.304 76.9361 287.5 74.9335C286.297 71.6343 286.326 68.3423 287.588 65.0585C288.87 62.101 291.098 60.3826 294.272 59.9032ZM294.797 62.0878C294.057 62.1842 293.358 62.4322 292.7 62.831C291.257 64.0123 290.441 65.5417 290.253 67.4189H299.69C299.614 66.6163 299.455 65.8289 299.21 65.0585C298.445 63.0368 296.973 62.0465 294.797 62.0878Z" fill="#505156"/>
<path fill-rule="evenodd" clip-rule="evenodd" d="M361.647 59.9032C366.692 59.6345 369.561 61.9939 370.254 66.9814C370.353 67.8817 370.397 68.7848 370.385 69.6903H357.453C357.413 71.1403 357.662 72.5384 358.196 73.8847C358.995 75.7034 360.378 76.7665 362.346 77.0741C364.189 77.2616 365.907 76.8831 367.502 75.9384C368.357 75.4158 369.159 74.8189 369.905 74.1474C369.963 75.1668 369.963 76.1865 369.905 77.206C366.681 79.9417 363.055 80.6265 359.026 79.2597C357.062 78.3786 355.679 76.9361 354.875 74.9335C353.679 71.704 353.679 68.4703 354.875 65.2333C356.15 62.1942 358.408 60.4176 361.647 59.9032ZM362.171 62.0878C361.431 62.1842 360.732 62.4322 360.074 62.831C358.631 64.0123 357.815 65.5419 357.628 67.4189H367.065C366.989 66.6165 366.829 65.8297 366.585 65.0595C365.82 63.0375 364.348 62.0465 362.171 62.0878Z" fill="#505156"/>
<path fill-rule="evenodd" clip-rule="evenodd" d="M78.691 59.9906C81.146 59.803 83.3601 60.4294 85.3326 61.8695C86.9092 63.3185 87.8561 65.1099 88.1724 67.2435C88.7876 70.8391 88.0312 74.1016 85.901 77.0307C84.3642 78.7093 82.4555 79.6568 80.1764 79.8715C78.0152 80.1323 75.9766 79.7529 74.0601 78.7348C72.3413 77.5679 71.1903 75.9802 70.608 73.9721C69.8478 71.0401 69.9931 68.1566 71.0445 65.3217C72.5594 62.0662 75.1085 60.2887 78.691 59.9906ZM84.5465 66.6322C83.6018 63.5355 81.5042 62.1375 78.2545 62.4379C76.5428 62.8526 75.2753 63.8426 74.4527 65.4086C73.3819 67.9399 73.2071 70.5324 73.9283 73.1859C74.4697 75.2418 75.7373 76.6259 77.7301 77.3373C81.3355 77.9273 83.6218 76.4559 84.5894 72.9242C85.0084 70.8233 84.9945 68.7256 84.5465 66.6322Z" fill="#505156"/>
<path fill-rule="evenodd" clip-rule="evenodd" d="M170.533 51.3393C170.518 55.1844 170.533 59.0296 170.577 62.8745C172.247 60.5768 174.504 59.6007 177.35 59.9468C180.341 60.4036 182.365 62.0495 183.423 64.8843C184.346 67.7785 184.404 70.6912 183.598 73.6225C182.915 75.8799 181.59 77.6426 179.622 78.9097C176.755 80.2987 174.017 80.0951 171.407 78.2983C171.101 77.9925 170.796 77.6862 170.49 77.3804C170.056 78.1446 169.663 78.9311 169.311 79.7397C168.643 79.8268 167.973 79.8565 167.301 79.8276C167.316 71.4094 167.301 62.9908 167.257 54.5727C167.238 54.2287 167.078 53.9806 166.776 53.8296C166.024 53.7126 165.267 53.6691 164.504 53.6987C164.477 53.0939 164.506 52.4969 164.592 51.9077C166.355 51.746 168.103 51.5563 169.835 51.3393H170.533ZM174.903 62.5249C173.102 62.8665 171.835 63.886 171.102 65.5835C170.349 67.6505 170.117 69.7768 170.402 71.9624C170.625 73.8228 171.484 75.2939 172.98 76.3755C176.128 77.9011 178.473 77.1 180.016 73.9722C180.857 71.5617 180.972 69.1151 180.364 66.6323C179.646 63.7907 177.826 62.4213 174.903 62.5249Z" fill="#505156"/>
<path fill-rule="evenodd" clip-rule="evenodd" d="M153.493 59.9026C155.079 59.7708 156.623 59.9604 158.125 60.471C159.973 61.2394 160.978 62.6236 161.139 64.6224C161.221 68.6149 161.309 72.6056 161.402 76.5941C161.487 77.0866 161.778 77.3199 162.276 77.2933C162.87 77.197 163.438 77.0219 163.979 76.7689C164.007 77.4609 163.978 78.1457 163.892 78.8226C162.87 79.3868 161.777 79.7217 160.615 79.8275C159.572 79.8451 158.844 79.3788 158.43 78.429C158.245 77.95 158.129 77.4549 158.081 76.9437C156.131 79.4091 153.612 80.2974 150.522 79.6087C148.244 79.1364 146.919 77.7528 146.547 75.4583C146.12 72.769 147.067 70.7436 149.386 69.3841C150.806 68.6596 152.292 68.1062 153.842 67.7239C155.23 67.3387 156.629 67.0038 158.038 66.7191C158.301 63.0357 156.611 61.5062 152.969 62.1312C151.815 62.3249 151.072 62.9809 150.741 64.098C150.627 64.7332 150.584 65.3737 150.61 66.0198H147.988C147.959 64.6498 147.988 63.2809 148.075 61.9134C149.732 60.8274 151.537 60.1565 153.493 59.9026ZM157.688 68.9036C155.83 69.4015 153.995 69.9992 152.182 70.6956C151.159 71.0783 150.416 71.763 149.954 72.7493C149.425 74.362 149.819 75.6873 151.133 76.7249C152.285 77.3675 153.479 77.4545 154.716 76.9866C156.719 76.3243 157.811 74.9411 157.994 72.8362C158.038 71.5258 158.053 70.2148 158.038 68.9036H157.688Z" fill="#505156"/>
<path fill-rule="evenodd" clip-rule="evenodd" d="M394.766 71.4381C420.895 71.4381 447.023 71.4381 473.152 71.4381C473.152 75.4287 473.152 79.4193 473.152 83.4099C447.023 83.4099 420.895 83.4099 394.766 83.4099C394.766 79.4193 394.766 75.4287 394.766 71.4381Z" fill="#4B9C95"/>
</svg>
